<?xml version="1.0" encoding="UTF-8" standalone="no"?>
<!DOCTYPE svg PUBLIC "-//W3C//DTD SVG 1.1//EN" "http://www.w3.org/Graphics/SVG/1.1/DTD/svg11.dtd">
<svg width="100%" height="100%" viewBox="0 0 168 110" version="1.1" xmlns="http://www.w3.org/2000/svg" xmlns:xlink="http://www.w3.org/1999/xlink" xml:space="preserve" xmlns:serif="http://www.serif.com/" style="fill-rule:evenodd;clip-rule:evenodd;stroke-linecap:round;stroke-linejoin:round;stroke-miterlimit:1.5;">
    <g transform="matrix(1,0,0,1,-455.622,-86.0266)">
        <g>
            <g>
                <circle cx="568.308" cy="139.692" r="32.308" style="fill:none;stroke:white;stroke-width:3.96px;"/>
                <g transform="matrix(-0.642606,0.682616,1.61188,1.5174,464.753,-418.56)">
                    <path d="M312,207.5C312,206.672 310.413,206 308.458,206L299.542,206C297.587,206 296,206.672 296,207.5C296,208.328 297.587,209 299.542,209L308.458,209C310.413,209 312,208.328 312,207.5Z" style="fill:rgb(235,235,235);"/>
                </g>
                <g transform="matrix(-0.883461,0.313692,0.740729,2.08614,731.228,-403.721)">
                    <path d="M312,207.5C312,206.672 310.413,206 308.458,206L299.542,206C297.587,206 296,206.672 296,207.5C296,208.328 297.587,209 299.542,209L308.458,209C310.413,209 312,208.328 312,207.5Z" style="fill:rgb(235,235,235);"/>
                </g>
                <g transform="matrix(-0.57497,-0.740483,-1.74852,1.35769,1138.29,120.467)">
                    <path d="M312,207.5C312,206.672 310.413,206 308.458,206L299.542,206C297.587,206 296,206.672 296,207.5C296,208.328 297.587,209 299.542,209L308.458,209C310.413,209 312,208.328 312,207.5Z" style="fill:rgb(235,235,235);"/>
                </g>
                <g transform="matrix(-0.925266,-0.150962,-0.356471,2.18485,970.52,-254.108)">
                    <path d="M312,207.5C312,206.672 310.413,206 308.458,206L299.542,206C297.587,206 296,206.672 296,207.5C296,208.328 297.587,209 299.542,209L308.458,209C310.413,209 312,208.328 312,207.5Z" style="fill:rgb(235,235,235);"/>
                </g>
                <g transform="matrix(-0.250771,0.903338,2.13308,0.592153,215.282,-304.112)">
                    <path d="M312,207.5C312,206.672 310.413,206 308.458,206L299.542,206C297.587,206 296,206.672 296,207.5C296,208.328 297.587,209 299.542,209L308.458,209C310.413,209 312,208.328 312,207.5Z" style="fill:rgb(235,235,235);"/>
                </g>
                <g transform="matrix(0.229581,0.908955,2.14634,-0.542115,37.8019,-69.9609)">
                    <path d="M312,207.5C312,206.672 310.413,206 308.458,206L299.542,206C297.587,206 296,206.672 296,207.5C296,208.328 297.587,209 299.542,209L308.458,209C310.413,209 312,208.328 312,207.5Z" style="fill:rgb(235,235,235);"/>
                </g>
            </g>
            <g transform="matrix(0.437616,0,0,0.437616,375.712,32.9888)">
                <path d="M413,274C437.975,274 458.25,294.276 458.25,319.25C458.25,344.224 437.974,364.5 413,364.5L252,364.5L251.598,364.499C217.426,364.282 189.75,336.473 189.75,302.25C189.75,267.893 217.643,240 252,240C252.169,240 252.339,240.001 252.508,240.002C256.98,200.631 290.441,170 331,170C374.601,170 410,205.399 410,249C410,257.736 408.579,266.142 405.956,274L413,274Z" style="stroke:white;stroke-width:14.29px;"/>
            </g>
        </g>
    </g>
</svg>
