<?xml version="1.0" encoding="UTF-8" standalone="no"?>
<!DOCTYPE svg PUBLIC "-//W3C//DTD SVG 1.1//EN" "http://www.w3.org/Graphics/SVG/1.1/DTD/svg11.dtd">
<svg width="100%" height="100%" viewBox="0 0 124 127" version="1.1" xmlns="http://www.w3.org/2000/svg" xmlns:xlink="http://www.w3.org/1999/xlink" xml:space="preserve" xmlns:serif="http://www.serif.com/" style="fill-rule:evenodd;clip-rule:evenodd;stroke-linecap:round;stroke-linejoin:round;stroke-miterlimit:1.5;">
    <g transform="matrix(1,0,0,1,-265.622,-104.256)">
        <g>
            <g>
                <g transform="matrix(-1.12564,1.6364,1.8239,1.25462,262.707,-540.766)">
                    <path d="M312,207.5C312,206.672 311.251,206 310.328,206L297.672,206C296.749,206 296,206.672 296,207.5C296,208.328 296.749,209 297.672,209L310.328,209C311.251,209 312,208.328 312,207.5Z" style="fill:rgb(235,235,235);"/>
                </g>
                <g transform="matrix(-1.12564,1.6364,1.8239,1.25462,282.707,-540.766)">
                    <path d="M312,207.5C312,206.672 311.251,206 310.328,206L297.672,206C296.749,206 296,206.672 296,207.5C296,208.328 296.749,209 297.672,209L310.328,209C311.251,209 312,208.328 312,207.5Z" style="fill:rgb(235,235,235);"/>
                </g>
                <g transform="matrix(-1.12564,1.6364,1.8239,1.25462,302.707,-540.766)">
                    <path d="M312,207.5C312,206.672 311.251,206 310.328,206L297.672,206C296.749,206 296,206.672 296,207.5C296,208.328 296.749,209 297.672,209L310.328,209C311.251,209 312,208.328 312,207.5Z" style="fill:rgb(235,235,235);"/>
                </g>
            </g>
            <g transform="matrix(0.437616,0,0,0.437616,185.712,32.9888)">
                <path d="M413,274C437.975,274 458.25,294.276 458.25,319.25C458.25,344.224 437.974,364.5 413,364.5L252,364.5L251.598,364.499C217.426,364.282 189.75,336.473 189.75,302.25C189.75,267.893 217.643,240 252,240C252.169,240 252.339,240.001 252.508,240.002C256.98,200.631 290.441,170 331,170C374.601,170 410,205.399 410,249C410,257.736 408.579,266.142 405.956,274L413,274Z" style="fill:none;stroke:white;stroke-width:14.29px;"/>
            </g>
        </g>
    </g>
</svg>
