<?xml version="1.0" encoding="UTF-8" standalone="no"?>
<!DOCTYPE svg PUBLIC "-//W3C//DTD SVG 1.1//EN" "http://www.w3.org/Graphics/SVG/1.1/DTD/svg11.dtd">
<svg width="100%" height="100%" viewBox="0 0 124 137" version="1.1" xmlns="http://www.w3.org/2000/svg" xmlns:xlink="http://www.w3.org/1999/xlink" xml:space="preserve" xmlns:serif="http://www.serif.com/" style="fill-rule:evenodd;clip-rule:evenodd;stroke-linecap:round;stroke-linejoin:round;stroke-miterlimit:1.5;">
    <g transform="matrix(1,0,0,1,-85.6222,-464.256)">
        <g>
            <g transform="matrix(1,0,0,1,0,-9)">
                <path d="M121,568L121.812,570.5L123.378,569.727L123.127,571.455L125.755,571.455L123.629,573L124.847,574.25L123.127,574.545L123.939,577.045L121.812,575.5L121,577.045L120.188,575.5L118.061,577.045L118.873,574.545L117.153,574.25L118.371,573L116.245,571.455L118.873,571.455L118.622,569.727L120.188,570.5L121,568Z" style="stroke:white;stroke-width:3.96px;"/>
                <g transform="matrix(1,0,0,1,30,20)">
                    <path d="M121,568L121.812,570.5L123.378,569.727L123.127,571.455L125.755,571.455L123.629,573L124.847,574.25L123.127,574.545L123.939,577.045L121.812,575.5L121,577.045L120.188,575.5L118.061,577.045L118.873,574.545L117.153,574.25L118.371,573L116.245,571.455L118.873,571.455L118.622,569.727L120.188,570.5L121,568Z" style="stroke:white;stroke-width:3.96px;"/>
                </g>
                <g transform="matrix(1,0,0,1,20,-10)">
                    <path d="M121,568L121.812,570.5L123.378,569.727L123.127,571.455L125.755,571.455L123.629,573L124.847,574.25L123.127,574.545L123.939,577.045L121.812,575.5L121,577.045L120.188,575.5L118.061,577.045L118.873,574.545L117.153,574.25L118.371,573L116.245,571.455L118.873,571.455L118.622,569.727L120.188,570.5L121,568Z" style="stroke:white;stroke-width:3.96px;"/>
                </g>
                <g transform="matrix(1,0,0,1,50,0)">
                    <path d="M121,568L121.812,570.5L123.378,569.727L123.127,571.455L125.755,571.455L123.629,573L124.847,574.25L123.127,574.545L123.939,577.045L121.812,575.5L121,577.045L120.188,575.5L118.061,577.045L118.873,574.545L117.153,574.25L118.371,573L116.245,571.455L118.873,571.455L118.622,569.727L120.188,570.5L121,568Z" style="stroke:white;stroke-width:3.96px;"/>
                </g>
                <g transform="matrix(1,0,0,1,7,31)">
                    <path d="M121,568L121.812,570.5L123.378,569.727L123.127,571.455L125.755,571.455L123.629,573L124.847,574.25L123.127,574.545L123.939,577.045L121.812,575.5L121,577.045L120.188,575.5L118.061,577.045L118.873,574.545L117.153,574.25L118.371,573L116.245,571.455L118.873,571.455L118.622,569.727L120.188,570.5L121,568Z" style="stroke:white;stroke-width:3.96px;"/>
                </g>
            </g>
            <g transform="matrix(0.437616,0,0,0.437616,5.71229,392.989)">
                <path d="M413,274C437.975,274 458.25,294.276 458.25,319.25C458.25,344.224 437.974,364.5 413,364.5L252,364.5L251.598,364.499C217.426,364.282 189.75,336.473 189.75,302.25C189.75,267.893 217.643,240 252,240C252.169,240 252.339,240.001 252.508,240.002C256.98,200.631 290.441,170 331,170C374.601,170 410,205.399 410,249C410,257.736 408.579,266.142 405.956,274L413,274Z" style="stroke:white;stroke-width:14.29px;"/>
            </g>
        </g>
    </g>
</svg>
