<?xml version="1.0" encoding="UTF-8" standalone="no"?>
<!DOCTYPE svg PUBLIC "-//W3C//DTD SVG 1.1//EN" "http://www.w3.org/Graphics/SVG/1.1/DTD/svg11.dtd">
<svg width="100%" height="100%" viewBox="0 0 110 109" version="1.1" xmlns="http://www.w3.org/2000/svg" xmlns:xlink="http://www.w3.org/1999/xlink" xml:space="preserve" xmlns:serif="http://www.serif.com/" style="fill-rule:evenodd;clip-rule:evenodd;stroke-linecap:round;stroke-linejoin:round;stroke-miterlimit:1.5;">
    <g transform="matrix(1,0,0,1,-704.615,-89.5141)">
        <g transform="matrix(1,0,0,1,190,5)">
            <circle cx="568.308" cy="139.692" r="32.308" style="fill:none;stroke:white;stroke-width:3.96px;"/>
            <g transform="matrix(-0.642606,0.682616,1.61188,1.5174,464.753,-418.56)">
                <path d="M312,207.5C312,206.672 310.413,206 308.458,206L299.542,206C297.587,206 296,206.672 296,207.5C296,208.328 297.587,209 299.542,209L308.458,209C310.413,209 312,208.328 312,207.5Z" style="fill:rgb(235,235,235);"/>
            </g>
            <g transform="matrix(-0.883461,0.313692,0.740729,2.08614,731.228,-403.721)">
                <path d="M312,207.5C312,206.672 310.413,206 308.458,206L299.542,206C297.587,206 296,206.672 296,207.5C296,208.328 297.587,209 299.542,209L308.458,209C310.413,209 312,208.328 312,207.5Z" style="fill:rgb(235,235,235);"/>
            </g>
            <g transform="matrix(-0.925266,-0.150962,-0.356471,2.18485,970.52,-254.108)">
                <path d="M312,207.5C312,206.672 310.413,206 308.458,206L299.542,206C297.587,206 296,206.672 296,207.5C296,208.328 297.587,209 299.542,209L308.458,209C310.413,209 312,208.328 312,207.5Z" style="fill:rgb(235,235,235);"/>
            </g>
            <g transform="matrix(-0.250771,0.903338,2.13308,0.592153,215.282,-304.112)">
                <path d="M312,207.5C312,206.672 310.413,206 308.458,206L299.542,206C297.587,206 296,206.672 296,207.5C296,208.328 297.587,209 299.542,209L308.458,209C310.413,209 312,208.328 312,207.5Z" style="fill:rgb(235,235,235);"/>
            </g>
            <g transform="matrix(0.242486,0.905597,2.13841,-0.572589,37.1635,-64.6169)">
                <path d="M312,207.5C312,206.672 310.413,206 308.458,206L299.542,206C297.587,206 296,206.672 296,207.5C296,208.328 297.587,209 299.542,209L308.458,209C310.413,209 312,208.328 312,207.5Z" style="fill:rgb(235,235,235);"/>
            </g>
            <g transform="matrix(0.664911,0.660908,1.56062,-1.57007,6.638,227.746)">
                <path d="M312,207.5C312,206.672 310.413,206 308.458,206L299.542,206C297.587,206 296,206.672 296,207.5C296,208.328 297.587,209 299.542,209L308.458,209C310.413,209 312,208.328 312,207.5Z" style="fill:rgb(235,235,235);"/>
            </g>
            <g transform="matrix(0.642606,-0.682616,-1.61188,-1.5174,673.479,697.289)">
                <path d="M312,207.5C312,206.672 310.413,206 308.458,206L299.542,206C297.587,206 296,206.672 296,207.5C296,208.328 297.587,209 299.542,209L308.458,209C310.413,209 312,208.328 312,207.5Z" style="fill:rgb(235,235,235);"/>
            </g>
            <g transform="matrix(0.883461,-0.313692,-0.740729,-2.08614,407.004,682.451)">
                <path d="M312,207.5C312,206.672 310.413,206 308.458,206L299.542,206C297.587,206 296,206.672 296,207.5C296,208.328 297.587,209 299.542,209L308.458,209C310.413,209 312,208.328 312,207.5Z" style="fill:rgb(235,235,235);"/>
            </g>
            <g transform="matrix(0.925266,0.150962,0.356471,-2.18485,167.712,532.837)">
                <path d="M312,207.5C312,206.672 310.413,206 308.458,206L299.542,206C297.587,206 296,206.672 296,207.5C296,208.328 297.587,209 299.542,209L308.458,209C310.413,209 312,208.328 312,207.5Z" style="fill:rgb(235,235,235);"/>
            </g>
            <g transform="matrix(0.250771,-0.903338,-2.13308,-0.592153,922.95,582.841)">
                <path d="M312,207.5C312,206.672 310.413,206 308.458,206L299.542,206C297.587,206 296,206.672 296,207.5C296,208.328 297.587,209 299.542,209L308.458,209C310.413,209 312,208.328 312,207.5Z" style="fill:rgb(235,235,235);"/>
            </g>
            <g transform="matrix(-0.229581,-0.908955,-2.14634,0.542115,1100.43,348.69)">
                <path d="M312,207.5C312,206.672 310.413,206 308.458,206L299.542,206C297.587,206 296,206.672 296,207.5C296,208.328 297.587,209 299.542,209L308.458,209C310.413,209 312,208.328 312,207.5Z" style="fill:rgb(235,235,235);"/>
            </g>
            <g transform="matrix(-0.754898,-0.555909,-1.31268,1.78256,1109.14,-28.6776)">
                <path d="M312,207.5C312,206.672 310.413,206 308.458,206L299.542,206C297.587,206 296,206.672 296,207.5C296,208.328 297.587,209 299.542,209L308.458,209C310.413,209 312,208.328 312,207.5Z" style="fill:rgb(235,235,235);"/>
            </g>
        </g>
    </g>
</svg>
